<svg xmlns="http://www.w3.org/2000/svg" version="1.1" xmlns:xlink="http://www.w3.org/1999/xlink" xmlns:svgjs="http://svgjs.dev/svgjs" width="100%" height="100%" viewBox="0 0 1000 600"><rect width="1000" height="600" x="0" y="0" fill="#ffffff"/><g><circle r="166.66666666666666" cx="339.0313364664713" cy="361.2535574901426" fill="#ce1446" transform="matrix(0.7252067293613235,0,0,0.7252067293613235,0,38.01650461343003)"/><path d="M416.29931703364514 362.5559471175186L416.29931703364514 362.5559471175186Q416.29931703364514 389.0529549213161 410.50590346298435 404.09786613194694Q404.66757970960515 419.1427773425778 393.8442256744947 425.9242149330412Q383.02087163938415 432.7056525235047 367.30230768797884 434.5020598322367Q351.6286539192918 436.25355695825044 331.9130837059577 436.25355695825044L331.9130837059577 436.25355695825044Q322.5268555178328 436.25355695825044 312.3322440407785 436.1188264100955Q302.1825427464425 435.9391856792223 292.3023025484163 435.9391856792223Q282.4220623503901 435.9391856792223 274.51787019196917 435.80445513106736Q266.6136780335482 435.62481440019417 261.76337829997163 435.62481440019417L261.76337829997163 435.62481440019417L261.76337829997163 307.5858834703182Q261.76337829997163 297.2116312623907 264.50289944578805 292.3613315288143Q267.24242059160434 287.5110317952377 278.87415791564433 286.88228923718157L278.87415791564433 286.88228923718157Q284.0388289282489 286.56791795815343 292.4819432792895 286.56791795815343Q300.88014744761176 286.56791795815343 310.40110618389156 286.38827722728024Q319.96697510288965 286.2535466791253 328.9939218292681 286.2535466791253Q338.06577873836494 286.2535466791253 344.21847377077216 286.56791795815343L344.21847377077216 286.56791795815343Q362.0029061272193 287.19666051620965 375.386140577273 289.487079834843Q388.81428521004494 291.732588970758 398.02087266729666 299.187679301996Q407.27237030726667 306.59785945051567 411.7633885790968 321.6427706611464Q416.29931703364514 336.6876818717773 416.29931703364514 362.5559471175186ZM286.64361952591037 312.7505544829229L286.64361952591037 421.7026577575209Q288.8891286618254 421.7026577575209 294.9070931460778 421.8822984883941Q300.88014744761176 422.0619392192673 307.97595631710334 422.0619392192673Q315.11667536931316 422.0619392192673 321.7184722289034 422.19666976742224Q328.3651792712119 422.3763104982954 331.9130837059577 422.3763104982954L331.9130837059577 422.3763104982954Q348.39512076357414 422.3763104982954 359.712486808586 420.0858911796621Q371.0298528535978 417.840382043747 377.9909311749345 411.55295646318484Q384.95200949627105 405.22062069990443 388.00590192111554 393.4092426449913Q391.1047045286783 381.64277477279643 391.1047045286783 362.5559471175186L391.1047045286783 362.5559471175186Q391.1047045286783 336.6876818717773 385.7603927852005 323.2595372390052Q380.4160810417227 309.8313926062333 367.97596042875335 304.9810928726568Q355.53583981578396 300.1307931390803 333.21547900478845 300.1307931390803L333.21547900478845 300.1307931390803Q328.67955055024004 300.1307931390803 320.4160769300727 300.1307931390803Q312.1975134926236 300.1307931390803 304.11368060332944 300.3104338699535Q296.02984771403527 300.4451644181084 291.49391925948686 301.11881715888296L291.49391925948686 301.11881715888296Q289.24841012357183 302.42121245771364 287.9460148247411 304.48708086275553Q286.64361952591037 306.59785945051567 286.64361952591037 312.7505544829229L286.64361952591037 312.7505544829229Z " fill="#ffffff" transform="matrix(0.7252067293613235,0,0,0.7252067293613235,0,38.01650461343003)"/><path d="M704.0893095485887 354.3988956385034L704.0893095485887 354.3988956385034Q704.0893095485887 374.12693816991134 699.7758900798573 385.32845384452435Q695.4290332509029 396.52996951913724 687.3706294372262 401.5790109127688Q679.3122256235494 406.62805230640026 667.6091495455955 407.9655467153093Q655.9395108278644 409.26960376399563 641.260509690088 409.26960376399563L641.260509690088 409.26960376399563Q634.2721014035384 409.26960376399563 626.6818206329798 409.1692916833274Q619.1249772226439 409.03554224243646 611.7687579736444 409.03554224243646Q604.4125387246448 409.03554224243646 598.5275633254452 408.93523016176835Q592.6425879262455 408.8014807208774 589.0313530221912 408.8014807208774L589.0313530221912 408.8014807208774L589.0313530221912 313.4715667258878Q589.0313530221912 305.7475365144382 591.0710319957774 302.13630161038384Q593.1107109693636 298.52506670632954 601.7709872670495 298.0569436632114L601.7709872670495 298.0569436632114Q605.6162836926629 297.8228821416523 611.9025074145353 297.8228821416523Q618.1552937761849 297.8228821416523 625.2440141434026 297.68913270076143Q632.3661718708431 297.5888206200932 639.0870812756109 297.5888206200932Q645.8414280406014 297.5888206200932 650.4223463911147 297.8228821416523L650.4223463911147 297.8228821416523Q663.6635410393139 298.2910051847705 673.6278743856861 299.99631055612946Q683.6256450922809 301.6681785672657 690.4803039379395 307.2187803642381Q697.368400143821 312.7359448009878 700.7121361660935 323.9374604756007Q704.0893095485887 335.1389761502137 704.0893095485887 354.3988956385034ZM607.555650585581 317.31686315150114L607.555650585581 398.4358990518326Q609.2275185967172 398.4358990518326 613.7081248665623 398.56964849272356Q618.1552937761849 398.7033979336144 623.4383966913755 398.7033979336144Q628.7549369667887 398.7033979336144 633.6702289195294 398.8037100142826Q638.6189582324927 398.93745945517344 641.260509690088 398.93745945517344L641.260509690088 398.93745945517344Q653.5320208918282 398.93745945517344 661.9582356679549 397.2321540838145Q670.3844504440817 395.5602860726782 675.5672412786041 390.87905564149673Q680.7500321131265 386.16438785009245 683.0237726082719 377.37036211151565Q685.3309504636399 368.60977373316166 685.3309504636399 354.3988956385034L685.3309504636399 354.3988956385034Q685.3309504636399 335.1389761502137 681.3519045971356 325.1412054436188Q677.3728587306313 315.143434737024 668.1107099489365 311.5321998329697Q658.8485611672414 307.9209649289153 642.230193136547 307.9209649289153L642.230193136547 307.9209649289153Q638.8530197540518 307.9209649289153 632.7005454730703 307.9209649289153Q626.5815085523117 307.9209649289153 620.5627837122211 308.0547143698062Q614.5440588721306 308.1550264504744 611.1668854896353 308.65658685381527L611.1668854896353 308.65658685381527Q609.4950174784991 309.6262703002743 608.52533403204 311.1643888705197Q607.555650585581 312.7359448009878 607.555650585581 317.31686315150114L607.555650585581 317.31686315150114ZM774.8762011400981 410.23928721045456L774.8762011400981 410.23928721045456Q760.899384566999 410.23928721045456 751.403174263745 408.3333576777593Q741.906963960491 406.3939907848412 736.2226127226278 401.1108878696506Q730.5716988449872 395.79434759423725 728.0638968282827 386.2981372909834Q725.5226574513557 376.7684896275066 725.5226574513557 361.6213654466121L725.5226574513557 361.6213654466121Q725.5226574513557 344.2673754910177 729.86951428031 333.1996092572956Q734.1829337490415 322.13184302357354 745.2506999827635 316.848740108383Q756.3519035767083 311.5321998329697 776.3140076296753 311.5321998329697L776.3140076296753 311.5321998329697Q791.7286306923517 311.5321998329697 800.9907794740466 315.6449951403649Q810.2529282557415 319.72435308753734 814.4660356438048 328.15056786366415Q818.6791430318682 336.57678263979085 818.6791430318682 350.0520388095491L818.6791430318682 350.0520388095491L818.6791430318682 363.79479386108926L750.8013017797359 363.79479386108926Q750.8013017797359 360.88574352171213 752.2391082693131 358.8460645481259Q753.6769147588903 356.8063855745396 757.5556485447265 356.8063855745396L757.5556485447265 356.8063855745396L803.5320188509737 356.8063855745396L803.2979573294145 349.81797728799006Q803.0304584476328 334.90491462865464 796.911421526874 328.15056786366415Q790.7589472458926 321.39622109867366 775.611823064998 321.39622109867366L775.611823064998 321.39622109867366Q762.838751459917 321.39622109867366 755.6162816518084 325.2749548845097Q748.3938118436997 329.1202513101232 745.5181988645453 337.78052760780895Q742.6091485251683 346.4408039054948 742.6091485251683 361.38730392505306L742.6091485251683 361.38730392505306Q742.6091485251683 377.27005003084753 745.8525724667726 385.5625153660834Q749.1294337685997 393.888418061542 756.8200266198265 396.89778048158723Q764.5106194710532 399.9071429016325 777.7518141192526 399.9071429016325L777.7518141192526 399.9071429016325Q782.3327324697658 399.9071429016325 788.2511452291883 399.5393319391825Q794.1361206283879 399.1715209767326 800.1548454684785 398.7033979336144Q806.173570308569 398.20183753027356 810.8548007397504 397.36590352470535Q815.5694685311547 396.52996951913724 817.4753980638501 395.5602860726782L817.4753980638501 395.5602860726782L817.4753980638501 398.4358990518326Q817.4753980638501 400.8433889878688 816.1713410151638 403.01681740234596Q814.8338466062548 405.1902458168231 810.7544886590823 406.62805230640026L810.7544886590823 406.62805230640026Q805.4379483836691 408.8014807208774 796.4098611235332 409.5371026457774Q787.3817738633974 410.23928721045456 774.8762011400981 410.23928721045456ZM875.0210950071603 409.77116416733645L875.0210950071603 409.77116416733645Q870.9417370599878 409.77116416733645 864.7892627790063 409.5371026457774Q858.6702258582476 409.26960376399563 852.2836900557071 408.4336697584274Q845.8971542531666 407.5977357528593 840.848112859535 405.9258677417231L840.848112859535 405.9258677417231Q838.4406229234988 404.95618429526405 837.0028164339217 403.986500848805Q835.5315725841218 403.01681740234596 834.9297001001127 400.60932746630976Q834.3278276161037 398.20183753027356 834.3278276161037 393.38685765820105L834.3278276161037 393.38685765820105Q839.6443678915169 396.0284091157964 846.8668376996255 397.5999650462645Q854.0893075077342 399.1715209767326 861.311777315843 399.6396440198507Q868.5342471239516 400.14120442319154 873.349226996024 400.14120442319154L873.349226996024 400.14120442319154Q880.5716968041327 400.14120442319154 887.4263556497914 399.5393319391825Q894.28101449545 398.93745945517344 899.8316162924224 396.89778048158723Q905.3487807291721 394.8246641477783 908.6256420309991 390.7453062006058Q911.8690659726035 386.66594825343327 911.8690659726035 379.9116014884428L911.8690659726035 379.9116014884428Q911.8690659726035 370.0475802227388 906.820024578972 367.2722793242526Q901.7375458251178 364.49697842576643 893.0772695274319 364.49697842576643L893.0772695274319 364.49697842576643L868.7683086455107 364.49697842576643Q859.8739708262657 364.49697842576643 852.049628534148 363.42698289863927Q844.2252862420303 362.3235500112893 839.2765569290669 357.40825805854877Q834.3278276161037 352.45952874558543 834.3278276161037 340.6561405869634L834.3278276161037 340.6561405869634Q834.3278276161037 327.916506342105 840.614051337976 321.6637199804554Q846.8668376996255 315.37749625858305 858.3024148957976 313.4715667258878Q869.7379920919697 311.5321998329697 884.8851162728641 311.5321998329697L884.8851162728641 311.5321998329697Q890.4357180698366 311.5321998329697 898.1263109210635 311.76626135452875Q905.8503411325129 312.0337602363105 912.8387494190625 313.2375052043286L912.8387494190625 313.2375052043286Q917.6537292911349 313.9396897690059 920.8971532327394 315.0431226563559Q924.1405771743437 316.11311818348304 925.7121331048118 318.0524850764011Q927.2836890352798 319.9584146090964 927.2836890352798 323.5696495131508L927.2836890352798 323.5696495131508L927.2836890352798 328.3846293852232Q925.1102606208027 325.977139449187 920.0612192271711 324.53933295960974Q914.9787404733169 323.1015264700326 908.3581431492174 322.3659045451326Q901.7375458251178 321.6637199804554 894.7825748987908 321.5299705395645Q887.7941666122413 321.39622109867366 881.7754417721508 321.39622109867366L881.7754417721508 321.39622109867366Q874.0514115607012 321.39622109867366 866.8289417525926 322.3659045451326Q859.6064719444839 323.33558799159164 855.1593030348614 327.0805723365369Q850.712134125239 330.7921193212594 850.712134125239 339.71989450072704L850.712134125239 339.71989450072704Q850.712134125239 346.4408039054948 853.5877471043933 349.583915766431Q856.4967974437706 352.6935902671445 861.4120893965111 353.5629616329353Q866.3608187094744 354.3988956385034 872.6136050711241 354.3988956385034L872.6136050711241 354.3988956385034L897.4241263563862 354.3988956385034Q906.5525256971902 354.3988956385034 913.6746834246306 355.9704515689715Q920.7634037918484 357.5085701392169 924.7424496583527 362.92542249529833Q928.721495524857 368.3422748513799 928.721495524857 379.9116014884428L928.721495524857 379.9116014884428Q928.721495524857 392.6846730935239 921.7330872383075 399.1715209767326Q914.7446789517579 405.6583688599412 902.6069171909086 407.73148519375025Q890.4357180698366 409.77116416733645 875.0210950071603 409.77116416733645ZM968.9132025125728 409.77116416733645L968.9132025125728 409.77116416733645Q957.6113747572916 409.77116416733645 953.7660783316783 403.75243932724595Q949.8873445458422 397.73371448715534 949.8873445458422 386.16438785009245L949.8873445458422 386.16438785009245L949.8873445458422 312.7359448009878L966.7397740980956 312.7359448009878L966.7397740980956 385.1947044036334Q966.7397740980956 395.0921630295601 968.9132025125728 398.4358990518326Q971.0866309270499 401.81307243432786 976.6372327240223 401.81307243432786L976.6372327240223 401.81307243432786Q978.5431622567177 401.81307243432786 981.4522125960948 401.34494939120975Q984.3278255752492 400.8433889878688 985.0634475001491 400.60932746630976L985.0634475001491 400.60932746630976L985.0634475001491 408.06585879597753Q984.3278255752492 408.3333576777593 982.2881466016628 408.6677312799866Q980.2484676280766 409.03554224243646 976.9716063262496 409.40335320488646Q973.7281823846453 409.77116416733645 968.9132025125728 409.77116416733645ZM958.5810582037508 298.7925655881113L958.5810582037508 298.7925655881113Q954.4682628963554 298.7925655881113 952.0607729603192 297.5888206200932Q949.653283024283 296.3850756520751 949.653283024283 292.506341866239L949.653283024283 292.506341866239Q949.653283024283 288.66104544062557 951.9604608796511 287.45730047260747Q954.2342013747964 286.2535555045894 958.3135593219689 286.2535555045894L958.3135593219689 286.2535555045894Q962.8944776724823 286.2535555045894 965.0679060869594 287.45730047260747Q967.2413345014364 288.66104544062557 967.0072729798775 292.506341866239L967.0072729798775 292.506341866239Q967.0072729798775 296.3850756520751 964.8338445654003 297.5888206200932Q962.6604161509232 298.7925655881113 958.5810582037508 298.7925655881113ZM1041.6394609970002 436.2535534637349L1041.6394609970002 436.2535534637349Q1036.3229207215868 436.2535534637349 1029.7023233974874 435.8857425012849Q1023.0817260733877 435.5179315388349 1017.0630012332971 434.4479360117077Q1011.0442763932066 433.34450312435774 1007.0652305267023 431.30482415077154Q1003.1196220204207 429.26514517718533 1003.1196220204207 426.12203331624914L1003.1196220204207 426.12203331624914Q1003.1196220204207 425.1857872300128 1003.1196220204207 423.71454338021294Q1003.1196220204207 422.2767368906357 1003.1196220204207 421.80861384751756L1003.1196220204207 421.80861384751756Q1006.4633580426932 423.4804818586538 1012.8498938452339 424.91828834823104Q1019.2364296477742 426.3895321980309 1026.458899455883 427.0917167627082Q1033.6813692639917 427.82733868760806 1038.9644721791824 427.82733868760806L1038.9644721791824 427.82733868760806Q1052.9412887522813 427.82733868760806 1060.6318816035082 423.71454338021294Q1068.3559118149578 419.6351854330404 1071.1312127134438 410.13897512978644Q1073.8730762517075 400.60932746630976 1073.1708916870302 384.96064288207435L1073.1708916870302 384.96064288207435L1076.7821265910843 384.96064288207435Q1074.374636655048 393.152796136642 1068.5899733365168 397.4996529655963Q1062.8053100179854 401.81307243432786 1054.8806556451996 403.5183778056869Q1046.922563912191 405.1902458168231 1037.760727211164 405.1902458168231L1037.760727211164 405.1902458168231Q1023.8173479982877 405.1902458168231 1014.6555112972609 401.9468218752188Q1005.5271119564569 398.7033979336144 1001.1802551275026 388.93968874857865Q996.8333982985483 379.1759795635429 996.8333982985483 360.18355895703496L996.8333982985483 360.18355895703496Q996.8333982985483 344.7689358943586 999.6086991970345 335.2392882308818Q1002.3840000955207 325.74307792762795 1008.4027249356112 320.6940365339964Q1014.421449775702 315.6449951403649 1024.1851589607377 313.83937768833766Q1033.9154307855506 312.0337602363105 1047.89224735865 312.0337602363105L1047.89224735865 312.0337602363105Q1053.1753502738406 312.0337602363105 1059.695635517272 312.50188327942874Q1066.1824834004806 312.97000632254685 1072.6693312836892 313.33781728499685Q1079.1896165271205 313.70562824744684 1084.1049084798615 314.17375129056495Q1089.0536377928247 314.6753116939059 1090.725505803961 315.143434737024L1090.725505803961 315.143434737024Q1090.491444282402 315.879056661924 1090.2573827608426 319.1224806035283Q1090.0233212392836 322.3659045451326 1090.0233212392836 326.57901193319606Q1090.0233212392836 330.7921193212594 1090.0233212392836 334.63741574687276L1090.0233212392836 334.63741574687276L1090.0233212392836 391.71498964706484Q1090.0233212392836 408.56741919931835 1085.0745919263204 418.2976910241314Q1080.15929997358 428.06140020916723 1069.5596567829757 432.14075815633964Q1058.960013592372 436.2535534637349 1041.6394609970002 436.2535534637349ZM1041.6394609970002 395.0921630295601L1041.6394609970002 395.0921630295601Q1050.533798816245 395.0921630295601 1057.5222071027947 393.01904669575106Q1064.5106153893444 390.97936772216485 1068.8240348580757 386.2981372909834Q1073.1708916870302 381.5834694995791 1073.1708916870302 373.65881512679323L1073.1708916870302 373.65881512679323L1073.1708916870302 324.0712099164916Q1070.997463272553 323.5696495131508 1063.306870421326 322.7337155075826Q1055.5828402098768 321.8977815020145 1045.4847574226137 321.8977815020145L1045.4847574226137 321.8977815020145Q1033.6813692639917 321.8977815020145 1026.927022499001 324.90714392205973Q1020.2061130942333 327.916506342105 1017.196750674188 335.74084863422274Q1014.1873882541428 343.5651909263404 1014.1873882541428 358.2441920641169L1014.1873882541428 358.2441920641169Q1014.1873882541428 373.1572547234523 1016.8289397117381 381.2490958973518Q1019.4704911693333 389.30749971102864 1025.4892160094241 392.18311269018295Q1031.5079408495144 395.0921630295601 1041.6394609970002 395.0921630295601ZM1134.795946577513 408.8014807208774L1123.7281803437909 408.8014807208774Q1118.1775785468185 408.8014807208774 1118.1775785468185 403.01681740234596L1118.1775785468185 403.01681740234596L1118.1775785468185 319.72435308753734Q1125.1659868333682 316.58124122660115 1136.60156402954 314.17375129056495Q1148.0371412257123 311.76626135452875 1162.9502038850474 311.76626135452875L1162.9502038850474 311.76626135452875Q1176.9270204581467 311.76626135452875 1185.5872967558325 313.70562824744684Q1194.2475730535184 315.6449951403649 1198.8284914040314 319.4902915659783Q1203.4094097545449 323.33558799159164 1204.980965685013 329.4880622725731Q1206.552521615481 335.6070991933318 1206.552521615481 344.2673754910177L1206.552521615481 344.2673754910177L1206.552521615481 401.5790109127688Q1206.552521615481 404.22056237036406 1205.950649131472 405.9258677417231Q1205.3487766474632 407.5977357528593 1203.777220716995 408.19960823686836Q1202.205664786527 408.8014807208774 1199.0625529255908 408.8014807208774L1199.0625529255908 408.8014807208774L1189.7000920632277 408.8014807208774L1189.7000920632277 340.92363946874514Q1189.7000920632277 331.29367972460034 1183.4138683413553 326.7127613740869Q1177.1610819797056 322.13184302357354 1162.9502038850474 322.13184302357354L1162.9502038850474 322.13184302357354Q1158.402722894757 322.13184302357354 1152.9858705386755 322.8674649484735Q1147.569018182594 323.5696495131508 1142.7540383105215 324.90714392205973Q1137.9390584384491 326.21120097074606 1134.795946577513 328.3846293852232L1134.795946577513 328.3846293852232L1134.795946577513 408.8014807208774Z " fill="#ce1446" transform="matrix(0.7252067293613235,0,0,0.7252067293613235,0,38.01650461343003)"/></g></svg>